<svg width="235" height="107" viewBox="0 0 235 107" fill="none" xmlns="http://www.w3.org/2000/svg">
<g filter="url(#filter0_d_73_602)">
<circle cx="53.5" cy="53.5" r="41.5" fill="url(#paint0_linear_73_602)"/>
<circle cx="53.5" cy="53.5" r="41.5" stroke="#4CA1DF" stroke-width="4"/>
</g>
<path d="M49.3241 65.476C47.0672 66.9767 44.4767 67.7372 41.6238 67.7372C37.6542 67.7372 33.9901 66.2543 31.3062 63.5629C28.6235 60.8716 27.146 57.1975 27.146 53.2173C27.146 49.2342 28.6235 45.5535 31.3062 42.8522C33.9924 40.1472 37.6559 38.6571 41.6238 38.6571C43.5537 38.6571 45.3825 39.0085 47.0578 39.7008C48.6578 40.3701 50.1196 41.329 51.3694 42.5292C51.6672 42.8265 51.6801 43.1084 51.4096 43.4164L49.3473 45.635C49.2994 45.6994 49.2377 45.7523 49.1668 45.7899C49.0958 45.8274 49.0173 45.8487 48.937 45.8522C48.7754 45.8417 48.6215 45.7796 48.498 45.6752C46.4954 43.9377 44.2603 43.0936 41.6641 43.0936C35.9927 43.0936 31.7159 47.4458 31.7159 53.2172C31.7159 58.9655 35.9927 63.3004 41.6641 63.3004C43.5154 63.3004 45.231 62.8503 46.7652 61.9627C46.7151 61.8498 46.664 61.7282 46.6046 61.5796C46.1086 60.3032 45.8584 58.9448 45.8672 57.5758C45.8587 56.2282 46.0982 54.8904 46.5736 53.6289C47.019 52.4486 47.6968 51.3692 48.5671 50.4543C49.4388 49.5423 50.4919 48.8221 51.659 48.3397C52.9289 47.8206 54.2899 47.5594 55.6622 47.5713C57.059 47.5713 58.3589 47.8254 59.5277 48.3264C59.9468 48.5061 60.3509 48.719 60.7359 48.963V39.3344C60.7359 38.9106 60.9418 38.6573 61.2866 38.6573H64.434C64.7788 38.6573 64.9847 38.9106 64.9847 39.3344V49.294C65.7858 48.7349 66.6704 48.3058 67.6059 48.0224C68.6182 47.7177 69.6703 47.5654 70.7277 47.5706C72.5524 47.5706 74.1937 47.9978 75.6053 48.8418V39.3341C75.6053 38.9103 75.8109 38.657 76.156 38.657H79.3033C79.6482 38.657 79.854 38.9103 79.854 39.3341V56.9395L79.8514 56.9371C79.8345 57.7712 79.7129 58.3017 79.457 58.6563C79.1776 59.043 78.7287 59.2232 78.0443 59.2232H65.0628C65.6049 62.4642 68.0133 64.3234 71.6715 64.3234C73.5482 64.3234 75.077 63.8632 76.6277 62.8321C76.709 62.774 76.8059 62.7414 76.906 62.7384C76.9778 62.741 77.0478 62.7618 77.1092 62.7989C77.1706 62.8361 77.2215 62.8882 77.257 62.9505L78.3585 64.441C78.5802 64.735 78.5376 64.9689 78.2009 65.3037C77.3761 66.1072 76.3473 66.7239 75.1423 67.1384C73.9869 67.5357 72.6997 67.7367 71.3164 67.7367C68.5856 67.7367 66.1662 66.9009 64.3202 65.321C63.9672 65.0188 63.6374 64.6907 63.3334 64.3396C62.6632 65.1248 61.8701 65.7968 60.9848 66.3294C60.2234 66.7857 59.403 67.1358 58.5464 67.37C57.642 67.6158 56.7086 67.7393 55.7712 67.7372C53.3232 67.7372 51.0757 66.9334 49.3241 65.476ZM55.7722 63.8132C58.64 63.8132 60.863 61.9949 61.4714 59.2252L50.0388 59.2237C50.6488 61.9754 52.8771 63.8132 55.7722 63.8132ZM49.9587 56.1634H61.0124C60.7793 53.0657 58.7291 51.1412 55.6623 51.1412C52.5651 51.1413 50.3798 53.0657 49.9587 56.1634ZM65.0239 56.1627H76.0772C75.8447 53.065 73.7952 51.141 70.7278 51.141C67.6309 51.1409 65.445 53.0649 65.0242 56.1627L65.0239 56.1627Z" fill="white"/>
<path d="M133.267 50.9805C134.92 51.0032 136.561 50.6971 138.094 50.0801C139.627 49.4631 141.023 48.5474 142.199 47.3863C142.458 47.1269 142.532 46.8676 142.236 46.6092L140.346 44.5337C140.298 44.4771 140.239 44.4316 140.172 44.4004C140.104 44.3692 140.031 44.353 139.957 44.353C139.883 44.353 139.81 44.3692 139.743 44.4004C139.676 44.4316 139.616 44.4771 139.569 44.5337C137.851 46.0803 135.617 46.9267 133.305 46.9057C128.117 46.9057 124.189 43.0144 124.189 37.6405C124.189 32.2667 128.117 28.3392 133.305 28.3392C135.617 28.3182 137.851 29.1646 139.569 30.7112C139.865 30.9336 140.125 30.9336 140.346 30.674L142.236 28.6331C142.295 28.5812 142.341 28.5169 142.371 28.4448C142.402 28.3727 142.416 28.2947 142.412 28.2166C142.409 28.1384 142.388 28.062 142.351 27.993C142.314 27.924 142.262 27.8642 142.199 27.8178C139.809 25.4978 136.598 24.2186 133.268 24.26C125.744 24.26 120 30.0786 120 37.6388C120 45.1991 125.744 50.9805 133.267 50.9805ZM151.983 50.9434C157.357 50.9434 161.359 46.7925 161.359 41.4189C161.359 36.0452 157.357 31.8946 151.983 31.8946C146.572 31.8946 142.57 36.0455 142.57 41.4191C142.57 46.7928 146.572 50.9436 151.983 50.9436V50.9434ZM146.424 41.4191C146.424 37.9354 148.833 35.6006 151.983 35.6006C155.096 35.6006 157.505 37.9354 157.505 41.4191C157.505 44.9029 155.096 47.2374 151.983 47.2374C148.833 47.2374 146.424 44.9026 146.424 41.4191ZM170.995 50.9436C173.96 50.9436 176.109 49.6465 177.406 47.5339L177.48 49.9428C177.472 50.0148 177.479 50.0879 177.501 50.1569C177.524 50.2258 177.561 50.2891 177.61 50.3421C177.66 50.3952 177.72 50.4368 177.787 50.464C177.855 50.4912 177.927 50.5034 177.999 50.4997H180.704C180.777 50.5033 180.849 50.4912 180.916 50.464C180.983 50.4368 181.044 50.3953 181.093 50.3424C181.142 50.2894 181.18 50.2263 181.202 50.1575C181.225 50.0886 181.232 50.0157 181.223 49.9438V24.5565C181.232 24.4846 181.225 24.4117 181.202 24.3429C181.18 24.274 181.142 24.2109 181.093 24.158C181.044 24.105 180.983 24.0635 180.916 24.0363C180.849 24.0092 180.777 23.997 180.704 24.0006H177.74C177.668 23.997 177.595 24.0092 177.528 24.0363C177.461 24.0635 177.401 24.105 177.351 24.158C177.302 24.2109 177.265 24.274 177.242 24.3429C177.22 24.4117 177.213 24.4846 177.221 24.5565V35.0447C175.924 33.0805 173.849 31.8946 170.995 31.8946C165.806 31.8946 162.249 36.0455 162.249 41.4191C162.249 46.8299 165.806 50.9436 170.995 50.9436ZM166.14 41.4191C166.14 37.9354 168.512 35.5637 171.774 35.5637C174.999 35.5637 177.259 37.9356 177.259 41.4563C177.259 44.94 174.998 47.2748 171.774 47.2748C168.513 47.2746 166.14 44.9398 166.14 41.4191Z" fill="white"/>
<path d="M224.768 50.9436C227.732 50.9436 229.882 49.6465 231.179 47.5339L231.253 49.9428C231.244 50.0148 231.251 50.0879 231.274 50.1569C231.296 50.2259 231.333 50.2892 231.383 50.3422C231.432 50.3953 231.493 50.4369 231.56 50.4641C231.627 50.4913 231.7 50.5034 231.772 50.4997H234.478C234.55 50.5034 234.622 50.4912 234.69 50.464C234.757 50.4367 234.817 50.3952 234.867 50.3421C234.916 50.2891 234.953 50.2259 234.976 50.157C234.998 50.088 235.005 50.015 234.996 49.9431V24.5565C235.005 24.4846 234.998 24.4117 234.975 24.3429C234.953 24.274 234.916 24.2109 234.866 24.158C234.817 24.105 234.757 24.0635 234.689 24.0363C234.622 24.0092 234.55 23.997 234.478 24.0006H231.513C231.44 23.997 231.368 24.0092 231.301 24.0363C231.234 24.0635 231.173 24.105 231.124 24.158C231.075 24.2109 231.037 24.274 231.015 24.3429C230.992 24.4117 230.985 24.4846 230.994 24.5565V35.0447C229.697 33.0805 227.621 31.8946 224.768 31.8946C219.579 31.8946 216.021 36.0455 216.021 41.4191C216.021 46.8299 219.579 50.9436 224.768 50.9436ZM219.913 41.4191C219.913 37.9354 222.285 35.5637 225.547 35.5637C228.771 35.5637 231.032 37.9356 231.032 41.4563C231.032 44.94 228.771 47.2748 225.547 47.2748C222.285 47.2746 219.913 44.9398 219.913 41.4191Z" fill="white"/>
<path d="M188.793 50.2059C187.636 49.7494 186.586 49.0576 185.709 48.1743C184.851 47.3041 184.179 46.2676 183.736 45.1285C183.268 43.9227 183.033 42.6395 183.041 41.3464C183.033 40.0735 183.258 38.8099 183.706 37.6182C184.126 36.5033 184.764 35.4835 185.584 34.6193C186.405 33.7576 187.397 33.0773 188.497 32.6217C189.693 32.1313 190.975 31.8841 192.268 31.8946C193.518 31.8813 194.758 32.1243 195.911 32.6082C196.936 33.046 197.856 33.6962 198.611 34.5161C198.829 34.7527 199.033 35.0022 199.221 35.2632C200.842 33.1866 203.367 31.8941 206.462 31.8941C211.91 31.8941 215.059 36.0077 215.059 40.5292C215.059 42.123 214.726 42.9015 213.355 42.9015H201.124C201.606 45.7915 203.756 47.7192 207.351 47.7192C209.016 47.7492 210.649 47.2566 212.02 46.3107C212.065 46.2739 212.117 46.2472 212.172 46.2327C212.228 46.2182 212.286 46.2163 212.343 46.227C212.4 46.2376 212.453 46.2606 212.5 46.2943C212.547 46.3281 212.585 46.3718 212.613 46.4222L213.651 47.8307C213.874 48.1272 213.799 48.3495 213.502 48.6458C211.909 50.2023 209.574 50.9439 207.018 50.9439C201.672 50.9439 198.012 47.5388 197.344 42.9024H186.932C187.442 45.9624 189.712 47.7197 193.159 47.7197C194.396 47.7419 195.621 47.4747 196.737 46.9392C197.192 47.8224 197.769 48.6369 198.452 49.3585C196.978 50.3957 195.033 50.9446 192.825 50.9446C191.447 50.9573 190.078 50.7066 188.793 50.2059ZM186.894 40.0119H197.308C197.09 37.0858 195.157 35.268 192.268 35.268C189.35 35.2672 187.291 37.085 186.894 40.0112V40.0119ZM201.087 40.0119H211.501C211.279 37.0474 209.315 35.2682 206.461 35.2682C203.607 35.2682 201.495 37.0088 201.087 40.0107V40.0119Z" fill="#FF1D0E"/>
<path d="M139.786 61.804C137.68 61.804 135.86 62.662 134.742 64.092C133.754 62.558 132.09 61.804 130.14 61.804C128.346 61.804 126.786 62.428 125.746 63.624V62.012H121.872V76H125.928V68.98C125.928 66.484 127.202 65.314 128.996 65.314C130.686 65.314 131.648 66.354 131.648 68.616V76H135.704V68.98C135.704 66.484 136.978 65.314 138.798 65.314C140.436 65.314 141.45 66.354 141.45 68.616V76H145.506V67.992C145.506 63.728 143.114 61.804 139.786 61.804ZM162.996 69.058C162.996 64.56 159.824 61.804 155.716 61.804C151.452 61.804 148.254 64.82 148.254 69.006C148.254 73.166 151.4 76.208 156.236 76.208C158.758 76.208 160.708 75.428 162.008 73.946L159.85 71.606C158.888 72.516 157.822 72.958 156.34 72.958C154.208 72.958 152.726 71.892 152.336 70.15H162.918C162.944 69.812 162.996 69.37 162.996 69.058ZM155.742 64.872C157.562 64.872 158.888 66.016 159.174 67.784H152.284C152.57 65.99 153.896 64.872 155.742 64.872ZM173.626 72.464C173.184 72.802 172.586 72.984 171.988 72.984C170.896 72.984 170.246 72.334 170.246 71.138V65.444H173.73V62.324H170.246V58.918H166.19V62.324H164.032V65.444H166.19V71.19C166.19 74.518 168.114 76.208 171.416 76.208C172.664 76.208 173.886 75.922 174.718 75.324L173.626 72.464ZM182.637 61.804C180.401 61.804 178.139 62.402 176.605 63.494L178.061 66.328C179.075 65.522 180.609 65.028 182.091 65.028C184.275 65.028 185.315 66.042 185.315 67.784H182.091C177.827 67.784 176.085 69.5 176.085 71.97C176.085 74.388 178.035 76.208 181.311 76.208C183.365 76.208 184.821 75.532 185.575 74.258V76H189.371V68.018C189.371 63.78 186.901 61.804 182.637 61.804ZM182.325 73.478C180.895 73.478 180.037 72.802 180.037 71.788C180.037 70.852 180.635 70.15 182.533 70.15H185.315V71.58C184.847 72.854 183.677 73.478 182.325 73.478Z" fill="#4CA1DF"/>
<defs>
<filter id="filter0_d_73_602" x="0" y="0" width="107" height="107" filterUnits="userSpaceOnUse" color-interpolation-filters="sRGB">
<feFlood flood-opacity="0" result="BackgroundImageFix"/>
<feColorMatrix in="SourceAlpha" type="matrix" values="0 0 0 0 0 0 0 0 0 0 0 0 0 0 0 0 0 0 127 0" result="hardAlpha"/>
<feOffset/>
<feGaussianBlur stdDeviation="5"/>
<feComposite in2="hardAlpha" operator="out"/>
<feColorMatrix type="matrix" values="0 0 0 0 0.297918 0 0 0 0 0.632765 0 0 0 0 0.87524 0 0 0 1 0"/>
<feBlend mode="normal" in2="BackgroundImageFix" result="effect1_dropShadow_73_602"/>
<feBlend mode="normal" in="SourceGraphic" in2="effect1_dropShadow_73_602" result="shape"/>
</filter>
<linearGradient id="paint0_linear_73_602" x1="-3.4489" y1="23.208" x2="71.0693" y2="68.0401" gradientUnits="userSpaceOnUse">
<stop stop-color="#F03522"/>
<stop offset="1" stop-color="#B50C65"/>
</linearGradient>
</defs>
</svg>
